# xmcd
#
# Track frame offsets: 
#        150
#        26192
#        50480
#        82537
#        105229
#        123822
#        148016
#        182175
#        207982
#        226042
#        257885
#
# Disc length: 4439 seconds
#
# Revision: 0
# Processed by: cddbd v1.5.2PL0 Copyright (c) Steve Scherf et al.
# Submitted via: ExactAudioCopy v1.3
#
DISCID=8911550b
DTITLE=Imperial Crowns - Preachin' The Blues - Live!
DYEAR=2005
DGENRE=Modern Electric Blues
TTITLE0=Preachin' The Blues
TTITLE1=Lil' Death
TTITLE2=Praise His Name
TTITLE3=Big Boy
TTITLE4=(Simply) Just A Dream
TTITLE5=The River
TTITLE6=Altar Of Love
TTITLE7=Golden Girl
TTITLE8=Blues Au GoGo
TTITLE9=You Don't Miss Your Water
TTITLE10=Ramblin' Woman Blues
EXTD=
EXTT0=
EXTT1=
EXTT2=
EXTT3=
EXTT4=
EXTT5=
EXTT6=
EXTT7=
EXTT8=
EXTT9=
EXTT10=
PLAYORDER=
